<svg xmlns="http://www.w3.org/2000/svg" fill="none" viewBox="0 0 47 46">
  <path fill="#FE7D27" d="M5.636 45.755a4.666 4.666 0 01-4.665-4.661V19.037a4.666 4.666 0 019.326 0v22.057a4.661 4.661 0 01-4.66 4.66z"/>
  <path fill="#369" d="M41.69 31.758a4.66 4.66 0 01-4.66-4.666V16.273l9.313-11.27v22.062a4.66 4.66 0 01-4.653 4.693z"/>
  <path fill="#FE7D27" d="M27.69 45.755H5.637a4.661 4.661 0 01-3.3-7.957L30.426 9.701H19.607a4.666 4.666 0 010-9.327h22.057a4.665 4.665 0 013.295 7.96L16.893 36.434h10.82a4.661 4.661 0 010 9.322h-.023z"/>
</svg>